<svg xmlns="http://www.w3.org/2000/svg" width="293" height="108" fill="none" viewBox="0 0 293 108">
  <mask id="a" width="293" height="108" x="0" y="0" maskUnits="userSpaceOnUse" style="mask-type:luminance">
    <path fill="#fff" d="M292.539 0H.431v107.975h292.108V0Z"/>
  </mask>
  <g mask="url(#a)">
    <path fill="#0098BA" d="M.43 49.495v16.819c81.01-36.3 107.901 79.5 272.333 9.063a32.563 32.563 0 0 0 19.776-29.911C113.139 132.81 85.413 11.58 4.269 43.841A6.089 6.089 0 0 0 .43 49.496Z"/>
    <path fill="#00EFFC" d="M291.771 7.232c-53.834-24.122-83.768 18.921-146.05 29.847 35.07 6.152 80.404 2.116 146.05-29.847Z"/>
    <path fill="#00BAD4" d="M.43 36.873c83.619-37.475 109.58 87.108 288.638 1.674a6.093 6.093 0 0 0 3.472-5.493V16.02C129.91 95.2 91.923 2.98 25.793 9.079A27.918 27.918 0 0 0 .43 36.872Z"/>
    <path fill="#4F7A96" d="M1.2 75.7c53.823-24.122 83.762 18.921 146.043 29.85C112.165 111.699 66.84 107.664 1.2 75.7Z"/>
  </g>
</svg>
